<?xml version="1.0" encoding="UTF-8" standalone="no"?>
<svg
   xmlns:dc="http://purl.org/dc/elements/1.1/"
   xmlns:cc="http://creativecommons.org/ns#"
   xmlns:rdf="http://www.w3.org/1999/02/22-rdf-syntax-ns#"
   xmlns:svg="http://www.w3.org/2000/svg"
   xmlns="http://www.w3.org/2000/svg"
   xmlns:sodipodi="http://sodipodi.sourceforge.net/DTD/sodipodi-0.dtd"
   xmlns:inkscape="http://www.inkscape.org/namespaces/inkscape"
   inkscape:export-ydpi="96"
   inkscape:export-xdpi="96"
   inkscape:export-filename="C:\Users\burak\Downloads\ASDL Official Logos _ old do not use\Aerospace_Systems_Design_Laboratory-Solid-Blue-538.png"
   sodipodi:docname="Aerospace_Systems_Design_Laboratory-Solid-White-Gold_Tower.svg"
   inkscape:version="1.0 (4035a4fb49, 2020-05-01)"
   id="svg8"
   version="1.1"
   viewBox="0 0 142.24 20.319999"
   height="0.80000001in"
   width="5.5999999in">
  <defs
     id="defs2">
    <clipPath
       clipPathUnits="userSpaceOnUse"
       id="clipPath863">
      <path
         d="M 0,70.157 H 424.25 V 0 H 0 Z"
         id="path861" />
    </clipPath>
  </defs>
  <sodipodi:namedview
     inkscape:window-maximized="1"
     inkscape:window-y="-8"
     inkscape:window-x="1912"
     inkscape:window-height="1017"
     inkscape:window-width="1920"
     units="in"
     fit-margin-bottom="0"
     fit-margin-right="0"
     fit-margin-left="0"
     fit-margin-top="0"
     showgrid="false"
     inkscape:document-rotation="0"
     inkscape:current-layer="layer1"
     inkscape:document-units="mm"
     inkscape:cy="8.5854413"
     inkscape:cx="253.0395"
     inkscape:zoom="1.979899"
     inkscape:pageshadow="2"
     inkscape:pageopacity="0.0"
     borderopacity="1.0"
     bordercolor="#666666"
     pagecolor="#ffffff"
     id="base" />
  <metadata
     id="metadata5">
    <rdf:RDF>
      <cc:Work
         rdf:about="">
        <dc:format>image/svg+xml</dc:format>
        <dc:type
           rdf:resource="http://purl.org/dc/dcmitype/StillImage" />
        <dc:title></dc:title>
      </cc:Work>
    </rdf:RDF>
  </metadata>
  <g
     transform="translate(-25.532034,-203.99718)"
     id="layer1"
     inkscape:groupmode="layer"
     inkscape:label="Layer 1">
    <g
       style="stroke:#b3a369"
       transform="translate(1.2130448,0.60063989)"
       id="g1237">
      <g
         style="stroke:#b3a369"
         id="g843"
         transform="matrix(0.35277777,0,0,-0.35277777,65.535763,214.56122)">
        <path
           d="M 0,0 5.28,-19.805 H 0 Z"
           style="fill:none;stroke:#b3a369;stroke-width:0.8;stroke-linecap:butt;stroke-linejoin:miter;stroke-miterlimit:4;stroke-dasharray:none;stroke-opacity:1"
           id="path845" />
      </g>
      <g
         style="stroke:#b3a369"
         id="g847"
         transform="matrix(0.35277777,0,0,-0.35277777,69.261625,214.56122)">
        <path
           d="M 0,0 -5.281,-19.805 H 0 Z"
           style="fill:none;stroke:#b3a369;stroke-width:0.8;stroke-linecap:butt;stroke-linejoin:miter;stroke-miterlimit:4;stroke-dasharray:none;stroke-opacity:1"
           id="path849" />
      </g>
      <g
         style="stroke:#b3a369"
         id="g851"
         transform="matrix(0.35277777,0,0,-0.35277777,68.33008,217.98221)">
        <path
           d="M 0,0 -2.641,39.616 -5.281,0"
           style="fill:none;stroke:#b3a369;stroke-width:0.8;stroke-linecap:butt;stroke-linejoin:miter;stroke-miterlimit:4;stroke-dasharray:none;stroke-opacity:1"
           id="path853" />
      </g>
      <path
         d="m 69.261484,222.97479 h -3.726039 v -0.7119 h 3.726039 z"
         style="fill:none;stroke:#b3a369;stroke-width:0.282222;stroke-linecap:butt;stroke-linejoin:miter;stroke-miterlimit:4;stroke-dasharray:none;stroke-opacity:1"
         id="path855" />
    </g>
    <g
       style="fill:#ffffff"
       transform="matrix(0.35277777,0,0,-0.35277777,25.310155,228.061)"
       id="g857">
      <g
         style="fill:#ffffff"
         clip-path="url(#clipPath863)"
         id="g859">
        <g
           style="fill:#ffffff"
           transform="translate(24.6465,40.6631)"
           id="g865">
          <path
             id="path867"
             style="fill:#ffffff;fill-opacity:1;fill-rule:nonzero;stroke:none"
             d="m 0,0 h -3.6 l -0.33,1.873 c -1.47,-1.656 -3.989,-2.232 -5.969,-2.232 -6.48,0 -10.68,3.962 -10.68,8.927 0,4.968 4.2,8.929 10.68,8.929 4.439,0 9.179,-1.896 9.689,-6.193 h -5.58 c -0.18,1.464 -1.98,2.352 -4.23,2.352 -3.6,0 -4.98,-2.544 -4.98,-5.088 0,-2.544 1.38,-5.087 4.98,-5.087 2.76,0 4.62,1.034 4.92,2.591 H -9 v 3.312 h 9 z" />
        </g>
        <g
           style="fill:#ffffff"
           transform="translate(37.1816,48.1748)"
           id="g869">
          <path
             id="path871"
             style="fill:#ffffff;fill-opacity:1;fill-rule:nonzero;stroke:none"
             d="m 0,0 c -0.09,1.393 -1.32,2.544 -3.03,2.544 -1.8,0 -3,-1.032 -3.3,-2.544 z m -6.33,-2.28 c 0.09,-1.701 1.32,-2.831 3.48,-2.831 1.23,0 2.43,0.457 2.91,1.371 H 4.83 C 3.9,-6.623 0.57,-7.871 -2.91,-7.871 c -5.069,0 -8.519,2.449 -8.519,6.623 0,3.816 3.809,6.553 8.399,6.553 5.58,0 8.37,-3.361 8.13,-7.585 z" />
        </g>
        <g
           style="fill:#ffffff"
           transform="translate(51.2671,43.4248)"
           id="g873">
          <path
             id="path875"
             style="fill:#ffffff;fill-opacity:1;fill-rule:nonzero;stroke:none"
             d="M 0,0 C 2.37,0 3.12,1.872 3.12,3.454 3.12,5.038 2.37,6.935 0,6.935 -2.37,6.935 -3.09,5.038 -3.09,3.454 -3.09,1.872 -2.37,0 0,0 m 0,10.055 c 4.83,0 8.22,-2.857 8.22,-6.601 0,-3.743 -3.39,-6.575 -8.22,-6.575 -4.83,0 -8.189,2.832 -8.189,6.575 0,3.744 3.359,6.601 8.189,6.601" />
        </g>
        <g
           style="fill:#ffffff"
           transform="translate(60.3325,53.1191)"
           id="g877">
          <path
             id="path879"
             style="fill:#ffffff;fill-opacity:1;fill-rule:nonzero;stroke:none"
             d="M 0,0 H 4.95 V -2.184 H 5.01 C 5.76,-0.6 7.5,0.24 9.69,0.24 c 0.39,0 0.81,-0.024 1.2,-0.095 v -3.721 c -0.661,0.144 -1.26,0.24 -1.95,0.24 -2.52,0 -3.84,-1.393 -3.84,-2.952 v -6.168 H 0 Z" />
        </g>
        <g
           style="fill:#ffffff"
           transform="translate(79.5957,50.3594)"
           id="g881">
          <path
             id="path883"
             style="fill:#ffffff;fill-opacity:1;fill-rule:nonzero;stroke:none"
             d="m 0,0 c -2.25,0 -2.97,-1.584 -2.97,-3.121 0,-1.462 0.84,-2.926 2.94,-2.926 2.16,0 3.09,1.344 3.09,2.902 C 3.06,-1.561 2.28,0 0,0 m 7.89,-8.183 c 0,-2.041 -0.48,-5.88 -7.77,-5.88 -3.63,0 -7.05,0.649 -7.65,3.984 h 5.1 c 0.12,-0.553 0.39,-0.889 0.87,-1.08 0.45,-0.192 1.08,-0.264 1.86,-0.264 2.43,0 2.67,1.367 2.67,2.904 v 1.176 H 2.91 c -0.93,-1.152 -2.49,-1.824 -4.14,-1.824 -4.709,0 -6.839,2.688 -6.839,6.19 0,3.313 2.429,6.097 6.839,6.097 1.86,0 3.27,-0.648 4.17,-1.92 H 3 v 1.56 h 4.89 z" />
        </g>
        <path
           id="path885"
           style="fill:#ffffff;fill-opacity:1;fill-rule:nonzero;stroke:none"
           d="m 94.531,54.68 h -5.1 v 3.12 h 5.1 z m -5.1,-1.561 h 5.1 V 40.663 h -5.1 z" />
        <g
           style="fill:#ffffff"
           transform="translate(102.6304,42.8252)"
           id="g887">
          <path
             id="path889"
             style="fill:#ffffff;fill-opacity:1;fill-rule:nonzero;stroke:none"
             d="M 0,0 C 2.43,0 3.24,1.104 3.12,3.671 2.4,3.31 1.08,3.238 -0.03,2.999 -1.17,2.783 -2.13,2.399 -2.13,1.417 -2.13,0.406 -1.14,0 0,0 m -6.6,6.454 c 0.09,1.632 1.05,2.688 2.43,3.336 1.38,0.625 3.18,0.864 4.95,0.864 3.69,0 7.26,-0.648 7.26,-4.176 V 1.032 c 0,-1.057 0,-2.21 0.6,-3.194 H 3.51 C 3.33,-1.777 3.27,-1.393 3.209,-0.984 1.89,-2.09 -0.06,-2.521 -1.92,-2.521 c -2.97,0 -5.31,1.201 -5.31,3.77 0,4.053 5.52,3.741 9.06,4.316 0.87,0.145 1.35,0.385 1.35,1.153 0,0.936 -1.41,1.296 -2.46,1.296 -1.41,0 -2.31,-0.504 -2.55,-1.56 z" />
        </g>
        <g
           style="fill:#ffffff"
           transform="translate(64.9463,33.7129)"
           id="g891">
          <path
             id="path893"
             style="fill:#ffffff;fill-opacity:1;fill-rule:nonzero;stroke:none"
             d="m 0,0 h -6.39 v -13.299 h -5.58 V 0 h -6.389 V 3.84 H 0 Z" />
        </g>
        <g
           style="fill:#ffffff"
           transform="translate(71.875,27.9277)"
           id="g895">
          <path
             id="path897"
             style="fill:#ffffff;fill-opacity:1;fill-rule:nonzero;stroke:none"
             d="m 0,0 c -0.09,1.393 -1.32,2.545 -3.03,2.545 -1.8,0 -3,-1.033 -3.3,-2.545 z m -6.33,-2.281 c 0.09,-1.703 1.32,-2.832 3.48,-2.832 1.23,0 2.43,0.457 2.91,1.369 H 4.83 C 3.9,-6.625 0.57,-7.873 -2.91,-7.873 c -5.069,0 -8.52,2.449 -8.52,6.625 0,3.816 3.81,6.553 8.4,6.553 5.58,0 8.37,-3.362 8.13,-7.586 z" />
        </g>
        <g
           style="fill:#ffffff"
           transform="translate(88.9951,28.3125)"
           id="g899">
          <path
             id="path901"
             style="fill:#ffffff;fill-opacity:1;fill-rule:nonzero;stroke:none"
             d="m 0,0 c -0.03,1.055 -1.2,1.799 -2.49,1.799 -2.85,0 -3.3,-1.944 -3.3,-3.672 0,-1.607 0.871,-3.264 3.03,-3.264 1.77,0 2.67,0.817 2.91,2.135 H 5.1 c -0.45,-3.336 -3.69,-5.256 -7.83,-5.256 -4.68,0 -8.16,2.569 -8.16,6.385 0,3.961 3.15,6.793 8.16,6.793 3.87,0 7.32,-1.633 7.68,-4.92 z" />
        </g>
        <g
           style="fill:#ffffff"
           transform="translate(95.1387,37.5527)"
           id="g903">
          <path
             id="path905"
             style="fill:#ffffff;fill-opacity:1;fill-rule:nonzero;stroke:none"
             d="m 0,0 h 5.1 v -6.385 h 0.06 c 0.78,1.272 2.88,2.065 4.74,2.065 5.189,0 5.609,-3.026 5.609,-4.825 v -7.994 H 10.41 v 6.026 c 0,1.703 0.24,3.431 -2.55,3.431 -1.92,0 -2.76,-1.295 -2.76,-2.664 v -6.793 H 0 Z" />
        </g>
        <g
           style="fill:#ffffff"
           transform="translate(130.9028,13.9277)"
           id="g907">
          <path
             id="path909"
             style="fill:#ffffff;fill-opacity:1;fill-rule:nonzero;stroke:none"
             d="m 0,0 c 0.231,0 0.556,0.037 0.556,0.381 0,0.316 -0.241,0.383 -0.496,0.383 H -0.416 V 0 Z m -0.496,0.844 h 0.564 c 0.388,0 0.567,-0.172 0.567,-0.463 0,-0.293 -0.207,-0.428 -0.448,-0.447 l 0.528,-0.809 h -0.1 L 0.1,-0.076 C 0.06,-0.08 0.02,-0.08 -0.024,-0.08 h -0.392 v -0.795 h -0.08 z m 0.504,-2.246 c 0.784,0 1.415,0.631 1.415,1.414 0,0.785 -0.631,1.416 -1.415,1.416 -0.784,0 -1.415,-0.631 -1.415,-1.416 0,-0.783 0.631,-1.414 1.415,-1.414 m 0,2.91 c 0.827,0 1.495,-0.668 1.495,-1.496 0,-0.826 -0.668,-1.494 -1.495,-1.494 -0.828,0 -1.495,0.668 -1.495,1.494 0,0.828 0.667,1.496 1.495,1.496" />
        </g>
        <g
           style="fill:#ffffff"
           transform="translate(143.7769,52.0068)"
           id="g911">
          <path
             id="path913"
             style="fill:#ffffff;fill-opacity:1;fill-rule:nonzero;stroke:none"
             d="m 0,0 h -0.042 l -2.079,-5.669 h 4.2 z M -3.044,3.779 H 3.065 L 9.512,-11.212 H 4.157 l -0.903,2.436 h -6.55 l -0.903,-2.436 h -5.354 z" />
        </g>
        <g
           style="fill:#ffffff"
           transform="translate(163.7954,47.7446)"
           id="g915">
          <path
             id="path917"
             style="fill:#ffffff;fill-opacity:1;fill-rule:nonzero;stroke:none"
             d="M 0,0 C -0.252,1.26 -1.196,2.331 -3.296,2.331 -5.396,2.331 -6.341,1.26 -6.593,0 Z m 4.367,-3.57 c -0.546,-1.888 -2.708,-3.842 -7.558,-3.842 -5.123,0 -7.979,1.954 -7.979,6.173 0,4.031 3.128,6.131 7.853,6.131 4.871,0 7.894,-2.121 7.894,-6.866 V -2.31 h -11.17 c 0.231,-1.469 1.281,-2.54 3.57,-2.54 1.427,0 2.163,0.608 2.687,1.28 z" />
        </g>
        <g
           style="fill:#ffffff"
           transform="translate(169.8071,52.1748)"
           id="g919">
          <path
             id="path921"
             style="fill:#ffffff;fill-opacity:1;fill-rule:nonzero;stroke:none"
             d="m 0,0 h 4.388 v -2.247 h 0.043 c 0.881,1.512 2.624,2.541 4.639,2.541 0.484,0 1.072,-0.042 1.512,-0.126 v -4.157 c -0.567,0.21 -1.616,0.378 -2.456,0.378 -2.541,0 -3.675,-1.302 -3.675,-3.36 V -11.38 H 0 Z" />
        </g>
        <g
           style="fill:#ffffff"
           transform="translate(185.8706,46.4849)"
           id="g923">
          <path
             id="path925"
             style="fill:#ffffff;fill-opacity:1;fill-rule:nonzero;stroke:none"
             d="m 0,0 c 0,-2.142 1.26,-3.212 3.275,-3.212 2.016,0 3.276,1.07 3.276,3.212 0,2.142 -1.26,3.212 -3.276,3.212 C 1.26,3.212 0,2.142 0,0 m 3.275,6.152 c 5.145,0 7.979,-2.121 7.979,-6.152 0,-4.031 -2.834,-6.152 -7.979,-6.152 -5.143,0 -7.978,2.121 -7.978,6.152 0,4.031 2.835,6.152 7.978,6.152" />
        </g>
        <g
           style="fill:#ffffff"
           transform="translate(202.9272,44.3428)"
           id="g927">
          <path
             id="path929"
             style="fill:#ffffff;fill-opacity:1;fill-rule:nonzero;stroke:none"
             d="m 0,0 c 0.062,-0.42 0.23,-0.756 0.629,-0.965 0.399,-0.231 1.008,-0.357 1.975,-0.357 0.986,0 2.036,0.189 2.036,1.008 0,0.609 -0.441,0.777 -1.533,0.902 l -3.968,0.483 c -2.604,0.315 -3.926,1.239 -3.926,3.171 0,3.086 2.644,4.052 6.907,4.052 3.024,0 6.845,-0.546 7.097,-3.779 H 4.22 C 4.178,4.998 3.863,5.312 3.422,5.48 2.98,5.669 2.393,5.732 1.826,5.732 c -1.281,0 -2.037,-0.294 -2.037,-1.07 0,-0.357 0.295,-0.672 1.428,-0.798 L 5.06,3.444 C 8.125,3.108 9.637,2.163 9.637,-0.062 9.637,-2.75 7.075,-4.01 2.352,-4.01 c -3.151,0 -7.413,0.567 -7.518,4.01 z" />
        </g>
        <g
           style="fill:#ffffff"
           transform="translate(221.4312,43.5664)"
           id="g931">
          <path
             id="path933"
             style="fill:#ffffff;fill-opacity:1;fill-rule:nonzero;stroke:none"
             d="M 0,0 C 2.036,0 3.148,1.008 3.148,2.897 3.148,4.787 2.036,5.795 0,5.795 -2.079,5.795 -3.171,4.661 -3.171,2.897 -3.171,1.134 -2.079,0 0,0 m -7.622,8.608 h 4.325 V 7.097 h 0.042 c 0.944,1.154 2.52,1.805 4.325,1.805 4.032,0 6.657,-2.225 6.657,-6.173 0,-3.296 -2.436,-5.962 -6.615,-5.962 -1.973,0 -3.485,0.65 -4.241,1.49 h -0.042 v -5.144 h -4.451 z" />
        </g>
        <g
           style="fill:#ffffff"
           transform="translate(240.6079,46.1069)"
           id="g935">
          <path
             id="path937"
             style="fill:#ffffff;fill-opacity:1;fill-rule:nonzero;stroke:none"
             d="m 0,0 c -0.336,-0.105 -0.882,-0.21 -1.7,-0.315 l -3.003,-0.357 c -0.903,-0.105 -1.28,-0.461 -1.28,-1.155 0,-0.881 0.796,-1.385 1.994,-1.385 2.561,0 3.989,0.965 3.989,2.519 z m -10.036,2.499 c 0.42,3.38 3.633,3.863 7.117,3.863 4.137,0 7.244,-0.672 7.244,-3.863 v -5.753 c 0,-0.966 0.106,-1.407 0.462,-2.058 H 0.336 c -0.148,0.336 -0.21,0.735 -0.232,1.05 -1.28,-1.218 -3.107,-1.512 -5.353,-1.512 -3.633,0 -5.564,1.176 -5.564,3.549 0,2.582 1.722,3.506 4.914,3.716 l 4.429,0.294 c 1.155,0.084 1.344,0.336 1.344,0.923 0,0.798 -0.861,1.218 -2.813,1.218 -1.638,0 -2.436,-0.462 -2.646,-1.427 z" />
        </g>
        <g
           style="fill:#ffffff"
           transform="translate(262.0952,45.4351)"
           id="g939">
          <path
             id="path941"
             style="fill:#ffffff;fill-opacity:1;fill-rule:nonzero;stroke:none"
             d="m 0,0 c -0.672,-3.254 -2.876,-5.102 -7.873,-5.102 -5.039,0 -7.979,1.953 -7.979,6.152 0,4.115 3.086,6.152 7.979,6.152 4.241,0 7.265,-1.281 7.664,-4.892 h -4.578 c -0.209,1.238 -1.133,1.952 -3.024,1.952 -2.078,0 -3.337,-1.155 -3.337,-3.212 0,-2.058 1.217,-3.213 3.359,-3.213 1.68,0 2.793,0.714 3.086,2.163 z" />
        </g>
        <g
           style="fill:#ffffff"
           transform="translate(274.2573,47.7446)"
           id="g943">
          <path
             id="path945"
             style="fill:#ffffff;fill-opacity:1;fill-rule:nonzero;stroke:none"
             d="M 0,0 C -0.252,1.26 -1.197,2.331 -3.297,2.331 -5.396,2.331 -6.341,1.26 -6.593,0 Z m 4.367,-3.57 c -0.546,-1.888 -2.709,-3.842 -7.558,-3.842 -5.123,0 -7.979,1.954 -7.979,6.173 0,4.031 3.129,6.131 7.853,6.131 4.871,0 7.894,-2.121 7.894,-6.866 V -2.31 h -11.17 c 0.232,-1.469 1.281,-2.54 3.57,-2.54 1.427,0 2.162,0.608 2.687,1.28 z" />
        </g>
        <g
           style="fill:#ffffff"
           transform="translate(298.5405,51.3979)"
           id="g947">
          <path
             id="path949"
             style="fill:#ffffff;fill-opacity:1;fill-rule:nonzero;stroke:none"
             d="m 0,0 c -0.146,1.029 -0.966,1.743 -3.254,1.743 -1.68,0 -2.603,-0.483 -2.603,-1.47 0,-0.504 0.356,-0.798 1.112,-0.924 1.26,-0.21 5.102,-0.777 6.571,-1.029 2.793,-0.483 4.473,-1.616 4.473,-4.262 0,-5.081 -6.593,-5.123 -8.651,-5.123 -5.081,0 -8.755,0.902 -9.048,5.081 h 5.92 c 0.126,-1.134 0.755,-1.848 3.359,-1.848 1.26,0 2.625,0.294 2.625,1.575 0,0.798 -0.63,1.071 -2.373,1.344 l -4.996,0.756 c -3.087,0.462 -4.283,2.015 -4.283,4.241 0,1.974 1.216,4.766 7.789,4.766 5.437,0 8.713,-1.302 9.028,-4.85 z" />
        </g>
        <g
           style="fill:#ffffff"
           transform="translate(306.6694,39.6191)"
           id="g951">
          <path
             id="path953"
             style="fill:#ffffff;fill-opacity:1;fill-rule:nonzero;stroke:none"
             d="m 0,0 h 1.07 c 1.555,0 1.827,0.42 2.037,0.819 l 0.504,1.008 -5.353,10.729 h 4.828 l 2.877,-6.761 2.771,6.761 h 4.704 L 7.391,-0.252 C 6.572,-1.974 5.9,-2.939 3.129,-2.939 1.953,-2.939 0.861,-2.876 0,-2.813 Z" />
        </g>
        <g
           style="fill:#ffffff"
           transform="translate(324.9429,44.3428)"
           id="g955">
          <path
             id="path957"
             style="fill:#ffffff;fill-opacity:1;fill-rule:nonzero;stroke:none"
             d="m 0,0 c 0.062,-0.42 0.23,-0.756 0.629,-0.965 0.399,-0.231 1.008,-0.357 1.975,-0.357 0.986,0 2.036,0.189 2.036,1.008 0,0.609 -0.441,0.777 -1.533,0.902 l -3.968,0.483 c -2.604,0.315 -3.926,1.239 -3.926,3.171 0,3.086 2.644,4.052 6.907,4.052 3.024,0 6.845,-0.546 7.097,-3.779 H 4.22 C 4.178,4.998 3.863,5.312 3.422,5.48 2.98,5.669 2.393,5.732 1.826,5.732 c -1.281,0 -2.037,-0.294 -2.037,-1.07 0,-0.357 0.295,-0.672 1.428,-0.798 L 5.06,3.444 C 8.125,3.108 9.637,2.163 9.637,-0.062 9.637,-2.75 7.075,-4.01 2.352,-4.01 c -3.151,0 -7.413,0.567 -7.518,4.01 z" />
        </g>
        <g
           style="fill:#ffffff"
           transform="translate(335.1499,52.1748)"
           id="g959">
          <path
             id="path961"
             style="fill:#ffffff;fill-opacity:1;fill-rule:nonzero;stroke:none"
             d="M 0,0 H 2.33 V 3.611 H 6.781 V 0 h 2.94 v -2.939 h -2.94 v -4.578 c 0,-1.028 0.252,-1.175 1.449,-1.175 0.546,0 0.987,0.02 1.575,0.042 v -2.772 c -0.903,-0.126 -2.078,-0.21 -3.38,-0.21 -2.898,0 -4.095,0.714 -4.095,3.171 v 5.522 H 0 Z" />
        </g>
        <g
           style="fill:#ffffff"
           transform="translate(356.4917,47.7446)"
           id="g963">
          <path
             id="path965"
             style="fill:#ffffff;fill-opacity:1;fill-rule:nonzero;stroke:none"
             d="M 0,0 C -0.252,1.26 -1.197,2.331 -3.297,2.331 -5.396,2.331 -6.341,1.26 -6.593,0 Z m 4.367,-3.57 c -0.546,-1.888 -2.709,-3.842 -7.558,-3.842 -5.123,0 -7.979,1.954 -7.979,6.173 0,4.031 3.129,6.131 7.853,6.131 4.871,0 7.894,-2.121 7.894,-6.866 V -2.31 h -11.17 c 0.232,-1.469 1.281,-2.54 3.57,-2.54 1.427,0 2.162,0.608 2.687,1.28 z" />
        </g>
        <g
           style="fill:#ffffff"
           transform="translate(362.1694,52.1748)"
           id="g967">
          <path
             id="path969"
             style="fill:#ffffff;fill-opacity:1;fill-rule:nonzero;stroke:none"
             d="m 0,0 h 4.325 v -1.659 h 0.042 c 1.07,1.05 2.414,1.953 4.577,1.953 1.576,0 3.024,-0.42 4.032,-1.953 1.196,1.176 2.519,1.953 4.787,1.953 2.372,0 4.409,-1.029 4.409,-3.863 v -7.811 h -4.451 v 6.635 c 0,1.092 -0.714,1.68 -1.91,1.68 -1.639,0 -2.499,-0.798 -2.499,-1.953 V -11.38 H 8.86 v 6.635 c 0,1.092 -0.714,1.68 -1.911,1.68 -1.637,0 -2.498,-0.798 -2.498,-1.953 V -11.38 H 0 Z" />
        </g>
        <g
           style="fill:#ffffff"
           transform="translate(390.7534,44.3428)"
           id="g971">
          <path
             id="path973"
             style="fill:#ffffff;fill-opacity:1;fill-rule:nonzero;stroke:none"
             d="m 0,0 c 0.062,-0.42 0.23,-0.756 0.629,-0.965 0.399,-0.231 1.008,-0.357 1.975,-0.357 0.986,0 2.036,0.189 2.036,1.008 0,0.609 -0.441,0.777 -1.533,0.902 l -3.968,0.483 c -2.604,0.315 -3.926,1.239 -3.926,3.171 0,3.086 2.644,4.052 6.907,4.052 3.024,0 6.845,-0.546 7.097,-3.779 H 4.22 C 4.178,4.998 3.863,5.312 3.422,5.48 2.98,5.669 2.393,5.732 1.826,5.732 c -1.281,0 -2.037,-0.294 -2.037,-1.07 0,-0.357 0.295,-0.672 1.428,-0.798 L 5.06,3.444 C 8.125,3.108 9.637,2.163 9.637,-0.062 9.637,-2.75 7.075,-4.01 2.352,-4.01 c -3.151,0 -7.413,0.567 -7.518,4.01 z" />
        </g>
        <g
           style="fill:#ffffff"
           transform="translate(140.0703,23.9043)"
           id="g975">
          <path
             id="path977"
             style="fill:#ffffff;fill-opacity:1;fill-rule:nonzero;stroke:none"
             d="M 0,0 H 4.178 C 7.034,0 7.81,2.1 7.81,4.157 7.81,6.95 6.446,8.272 3.779,8.272 H 0 Z M -4.997,11.632 H 5.837 c 4.64,0 7.139,-2.498 7.139,-7.496 0,-5.9 -3.486,-7.495 -7.79,-7.495 H -4.997 Z" />
        </g>
        <g
           style="fill:#ffffff"
           transform="translate(164.8765,27.4951)"
           id="g979">
          <path
             id="path981"
             style="fill:#ffffff;fill-opacity:1;fill-rule:nonzero;stroke:none"
             d="M 0,0 C -0.252,1.26 -1.197,2.33 -3.297,2.33 -5.396,2.33 -6.341,1.26 -6.593,0 Z m 4.367,-3.57 c -0.546,-1.889 -2.709,-3.842 -7.558,-3.842 -5.123,0 -7.979,1.953 -7.979,6.173 0,4.031 3.129,6.131 7.853,6.131 4.871,0 7.894,-2.121 7.894,-6.867 v -0.336 h -11.17 c 0.232,-1.468 1.281,-2.54 3.57,-2.54 1.427,0 2.162,0.609 2.687,1.281 z" />
        </g>
        <g
           style="fill:#ffffff"
           transform="translate(175.6108,24.0928)"
           id="g983">
          <path
             id="path985"
             style="fill:#ffffff;fill-opacity:1;fill-rule:nonzero;stroke:none"
             d="m 0,0 c 0.062,-0.42 0.23,-0.756 0.629,-0.965 0.399,-0.231 1.008,-0.357 1.975,-0.357 0.986,0 2.036,0.189 2.036,1.008 0,0.609 -0.441,0.777 -1.533,0.902 l -3.968,0.483 c -2.604,0.316 -3.926,1.24 -3.926,3.171 0,3.086 2.644,4.052 6.907,4.052 3.024,0 6.845,-0.546 7.097,-3.779 H 4.22 C 4.178,4.998 3.863,5.312 3.422,5.48 2.98,5.67 2.393,5.732 1.826,5.732 c -1.281,0 -2.037,-0.294 -2.037,-1.07 0,-0.357 0.295,-0.672 1.428,-0.799 L 5.06,3.443 c 3.065,-0.336 4.577,-1.28 4.577,-3.505 0,-2.688 -2.562,-3.948 -7.285,-3.948 -3.151,0 -7.413,0.567 -7.518,4.01 z" />
        </g>
        <path
           id="path987"
           style="fill:#ffffff;fill-opacity:1;fill-rule:nonzero;stroke:none"
           d="m 186.577,31.925 h 4.451 v -11.38 h -4.451 z m 0,3.989 h 4.451 v -2.688 h -4.451 z" />
        <g
           style="fill:#ffffff"
           transform="translate(200.0835,23.8623)"
           id="g989">
          <path
             id="path991"
             style="fill:#ffffff;fill-opacity:1;fill-rule:nonzero;stroke:none"
             d="M 0,0 C 2.52,0 3.318,1.218 3.318,2.666 3.318,4.262 2.289,5.417 0,5.417 -2.246,5.417 -3.275,4.199 -3.275,2.709 -3.275,1.197 -2.246,0 0,0 M 3.443,8.063 H 7.77 V -2.289 c 0,-3.8 -2.122,-5.396 -7.581,-5.396 -4.493,0 -7.348,0.756 -7.81,3.906 h 4.913 c 0.21,-1.03 1.407,-1.344 2.708,-1.344 2.499,0 3.318,0.882 3.318,2.961 v 0.797 c -0.987,-1.008 -2.835,-1.448 -4.556,-1.448 -4.829,0 -6.741,2.477 -6.741,5.584 0,3.002 2.164,5.585 6.741,5.585 1.973,0 3.717,-0.503 4.64,-1.743 h 0.041 z" />
        </g>
        <g
           style="fill:#ffffff"
           transform="translate(209.7075,31.9248)"
           id="g993">
          <path
             id="path995"
             style="fill:#ffffff;fill-opacity:1;fill-rule:nonzero;stroke:none"
             d="m 0,0 h 4.325 v -1.638 h 0.042 c 0.904,1.113 2.54,1.932 4.787,1.932 2.792,0 4.829,-1.344 4.829,-4.179 V -11.38 H 9.532 v 6.151 c 0,1.45 -0.818,2.164 -2.309,2.164 -1.576,0 -2.772,-0.861 -2.772,-2.73 V -11.38 H 0 Z" />
        </g>
        <g
           style="fill:#ffffff"
           transform="translate(232.6069,35.5361)"
           id="g997">
          <path
             id="path999"
             style="fill:#ffffff;fill-opacity:1;fill-rule:nonzero;stroke:none"
             d="m 0,0 h 4.997 v -11.506 h 9.134 v -3.485 H 0 Z" />
        </g>
        <g
           style="fill:#ffffff"
           transform="translate(258.4351,25.8564)"
           id="g1001">
          <path
             id="path1003"
             style="fill:#ffffff;fill-opacity:1;fill-rule:nonzero;stroke:none"
             d="m 0,0 c -0.336,-0.104 -0.882,-0.209 -1.701,-0.314 l -3.002,-0.358 c -0.902,-0.104 -1.281,-0.461 -1.281,-1.154 0,-0.882 0.798,-1.386 1.995,-1.386 2.561,0 3.989,0.966 3.989,2.52 z m -10.036,2.499 c 0.42,3.38 3.632,3.863 7.118,3.863 4.136,0 7.243,-0.672 7.243,-3.863 v -5.753 c 0,-0.966 0.105,-1.406 0.462,-2.058 H 0.336 c -0.147,0.336 -0.21,0.736 -0.231,1.05 -1.281,-1.217 -3.107,-1.511 -5.354,-1.511 -3.632,0 -5.564,1.175 -5.564,3.548 0,2.582 1.721,3.506 4.913,3.716 l 4.43,0.294 c 1.156,0.084 1.344,0.336 1.344,0.924 0,0.798 -0.86,1.218 -2.813,1.218 -1.638,0 -2.436,-0.462 -2.646,-1.428 z" />
        </g>
        <g
           style="fill:#ffffff"
           transform="translate(272.4214,23.3164)"
           id="g1005">
          <path
             id="path1007"
             style="fill:#ffffff;fill-opacity:1;fill-rule:nonzero;stroke:none"
             d="M 0,0 C 2.037,0 3.15,1.008 3.15,2.897 3.15,4.787 2.037,5.795 0,5.795 -2.078,5.795 -3.17,4.661 -3.17,2.897 -3.17,1.134 -2.078,0 0,0 M -7.621,12.556 H -3.17 V 7.159 h 0.042 c 0.756,1.092 2.268,1.743 4.241,1.743 4.178,0 6.614,-2.667 6.614,-5.963 0,-3.947 -2.624,-6.172 -6.656,-6.172 -1.805,0 -3.38,0.65 -4.325,1.805 h -0.042 v -1.343 h -4.325 z" />
        </g>
        <g
           style="fill:#ffffff"
           transform="translate(285.7124,26.2354)"
           id="g1009">
          <path
             id="path1011"
             style="fill:#ffffff;fill-opacity:1;fill-rule:nonzero;stroke:none"
             d="m 0,0 c 0,-2.143 1.26,-3.213 3.275,-3.213 2.016,0 3.276,1.07 3.276,3.213 0,2.141 -1.26,3.212 -3.276,3.212 C 1.26,3.212 0,2.141 0,0 m 3.275,6.151 c 5.145,0 7.979,-2.12 7.979,-6.151 0,-4.031 -2.834,-6.152 -7.979,-6.152 -5.143,0 -7.978,2.121 -7.978,6.152 0,4.031 2.835,6.151 7.978,6.151" />
        </g>
        <g
           style="fill:#ffffff"
           transform="translate(298.022,31.9248)"
           id="g1013">
          <path
             id="path1015"
             style="fill:#ffffff;fill-opacity:1;fill-rule:nonzero;stroke:none"
             d="m 0,0 h 4.388 v -2.246 h 0.043 c 0.881,1.512 2.624,2.54 4.639,2.54 0.484,0 1.072,-0.042 1.512,-0.126 v -4.157 c -0.567,0.21 -1.616,0.378 -2.456,0.378 -2.541,0 -3.675,-1.302 -3.675,-3.36 V -11.38 H 0 Z" />
        </g>
        <g
           style="fill:#ffffff"
           transform="translate(319.6704,25.8564)"
           id="g1017">
          <path
             id="path1019"
             style="fill:#ffffff;fill-opacity:1;fill-rule:nonzero;stroke:none"
             d="m 0,0 c -0.336,-0.104 -0.882,-0.209 -1.7,-0.314 l -3.003,-0.358 c -0.903,-0.104 -1.28,-0.461 -1.28,-1.154 0,-0.882 0.796,-1.386 1.994,-1.386 2.561,0 3.989,0.966 3.989,2.52 z m -10.036,2.499 c 0.42,3.38 3.633,3.863 7.117,3.863 4.137,0 7.244,-0.672 7.244,-3.863 v -5.753 c 0,-0.966 0.106,-1.406 0.462,-2.058 H 0.336 c -0.148,0.336 -0.21,0.736 -0.232,1.05 -1.28,-1.217 -3.107,-1.511 -5.353,-1.511 -3.633,0 -5.564,1.175 -5.564,3.548 0,2.582 1.722,3.506 4.914,3.716 l 4.429,0.294 c 1.155,0.084 1.344,0.336 1.344,0.924 0,0.798 -0.861,1.218 -2.813,1.218 -1.638,0 -2.436,-0.462 -2.646,-1.428 z" />
        </g>
        <g
           style="fill:#ffffff"
           transform="translate(324.8599,31.9248)"
           id="g1021">
          <path
             id="path1023"
             style="fill:#ffffff;fill-opacity:1;fill-rule:nonzero;stroke:none"
             d="M 0,0 H 2.331 V 3.611 H 6.782 V 0 h 2.94 v -2.939 h -2.94 v -4.578 c 0,-1.028 0.252,-1.175 1.448,-1.175 0.546,0 0.988,0.02 1.576,0.042 v -2.772 c -0.904,-0.126 -2.079,-0.21 -3.381,-0.21 -2.898,0 -4.094,0.714 -4.094,3.171 v 5.522 H 0 Z" />
        </g>
        <g
           style="fill:#ffffff"
           transform="translate(339.855,26.2354)"
           id="g1025">
          <path
             id="path1027"
             style="fill:#ffffff;fill-opacity:1;fill-rule:nonzero;stroke:none"
             d="m 0,0 c 0,-2.143 1.26,-3.213 3.275,-3.213 2.016,0 3.276,1.07 3.276,3.213 0,2.141 -1.26,3.212 -3.276,3.212 C 1.26,3.212 0,2.141 0,0 m 3.275,6.151 c 5.144,0 7.979,-2.12 7.979,-6.151 0,-4.031 -2.835,-6.152 -7.979,-6.152 -5.144,0 -7.978,2.121 -7.978,6.152 0,4.031 2.834,6.151 7.978,6.151" />
        </g>
        <g
           style="fill:#ffffff"
           transform="translate(352.4136,31.9248)"
           id="g1029">
          <path
             id="path1031"
             style="fill:#ffffff;fill-opacity:1;fill-rule:nonzero;stroke:none"
             d="M 0,0 H 4.389 V -2.246 H 4.43 c 0.882,1.512 2.625,2.54 4.64,2.54 0.483,0 1.071,-0.042 1.512,-0.126 v -4.157 c -0.566,0.21 -1.617,0.378 -2.457,0.378 -2.54,0 -3.674,-1.302 -3.674,-3.36 V -11.38 H 0 Z" />
        </g>
        <g
           style="fill:#ffffff"
           transform="translate(365.5757,19.3691)"
           id="g1033">
          <path
             id="path1035"
             style="fill:#ffffff;fill-opacity:1;fill-rule:nonzero;stroke:none"
             d="m 0,0 h 1.07 c 1.555,0 1.827,0.42 2.037,0.819 l 0.504,1.008 -5.353,10.729 h 4.828 l 2.877,-6.761 2.771,6.761 h 4.704 L 7.391,-0.252 C 6.572,-1.974 5.9,-2.939 3.129,-2.939 1.953,-2.939 0.861,-2.876 0,-2.813 Z" />
        </g>
      </g>
    </g>
  </g>
</svg>
