<?xml version="1.0" encoding="UTF-8" standalone="no"?>
<!-- Generator: Adobe Illustrator 26.2.1, SVG Export Plug-In . SVG Version: 6.00 Build 0)  -->

<svg
   version="1.1"
   id="Layer_1"
   x="0px"
   y="0px"
   viewBox="0 0 435.9 121.2"
   style="enable-background:new 0 0 435.9 121.2;"
   xml:space="preserve"
   sodipodi:docname="Official-Logo_GT-gold_ASDL-white.svg"
   inkscape:version="1.2 (dc2aedaf03, 2022-05-15)"
   xmlns:inkscape="http://www.inkscape.org/namespaces/inkscape"
   xmlns:sodipodi="http://sodipodi.sourceforge.net/DTD/sodipodi-0.dtd"
   xmlns="http://www.w3.org/2000/svg"
   xmlns:svg="http://www.w3.org/2000/svg"><defs
   id="defs105">
	

		
		
		
		
		
		
		
		
		
		
		
		
		
		
		
		
		
		
		
		
		
		
		
		
		
		
		
		
		
		
		
		
		
		
		
		
		
		
		
		
		
		
		
		
			
		
		
		
		
	</defs><sodipodi:namedview
   id="namedview103"
   pagecolor="#505050"
   bordercolor="#ffffff"
   borderopacity="1"
   inkscape:showpageshadow="0"
   inkscape:pageopacity="0"
   inkscape:pagecheckerboard="1"
   inkscape:deskcolor="#505050"
   showgrid="false"
   inkscape:zoom="2.7758661"
   inkscape:cx="203.7202"
   inkscape:cy="75.652064"
   inkscape:window-width="1920"
   inkscape:window-height="1057"
   inkscape:window-x="1912"
   inkscape:window-y="-8"
   inkscape:window-maximized="1"
   inkscape:current-layer="Layer_1" />
<style
   type="text/css"
   id="style2">
	.st0{fill:#0A3254;}
	.st1{fill:#B4A168;}
</style>
<g
   id="g335"><g
     id="g636"
     style="fill:#ffffff"><path
       class="st0"
       d="m 187.4,25.7 c 0.6,0 1.1,0.1 1.7,0.3 0.5,0.1 0.9,0.4 1.3,0.7 0.1,0 0.1,0.1 0.1,0.2 v 1.7 c 0,0.1 0,0.1 -0.1,0.1 0,0 0,0 0,0 h -1.3 c -0.1,0 -0.1,0 -0.1,-0.1 0,0 0,0 0,0 v -0.8 c 0,0 0,-0.1 -0.1,-0.1 -0.4,-0.3 -1,-0.4 -1.5,-0.4 -0.9,-0.1 -1.7,0.4 -2,1.3 -0.2,0.7 -0.3,1.4 -0.2,2.2 0,0.7 0,1.5 0.2,2.2 0.1,0.4 0.3,0.7 0.7,0.9 0.4,0.2 0.8,0.3 1.3,0.3 0.5,0 1.1,-0.1 1.6,-0.3 0.1,0 0.1,-0.1 0.1,-0.2 v -1.9 c 0,0 0,-0.1 -0.1,-0.1 h -1.5 c -0.1,0 -0.1,0 -0.1,-0.1 0,0 0,0 0,0 v -1.1 c 0,-0.1 0,-0.1 0.1,-0.1 0,0 0,0 0,0 h 3 c 0.1,0 0.1,0 0.1,0.1 0,0 0,0 0,0 v 4 c 0,0.1 -0.1,0.3 -0.2,0.3 -0.9,0.6 -2,0.9 -3.1,0.9 -1.9,0 -3.1,-0.7 -3.6,-2.2 -0.2,-0.9 -0.3,-1.8 -0.2,-2.7 0,-0.9 0.1,-1.8 0.3,-2.6 0.5,-1.8 1.7,-2.5 3.6,-2.5 z"
       id="path4"
       style="fill:#ffffff" /><path
       class="st0"
       d="m 195.2,28.4 c 0.6,0 1.2,0.2 1.8,0.6 0.5,0.3 0.8,0.8 1,1.4 0.2,0.7 0.2,1.3 0.2,2 0,0.1 -0.1,0.1 -0.1,0.1 h -4.2 c -0.1,0 -0.1,0 -0.1,0.1 0,0.2 0,0.4 0.1,0.5 0.2,0.6 0.8,1.1 1.5,1 0.6,0 1.2,-0.2 1.6,-0.6 0.1,-0.1 0.1,-0.1 0.2,0 l 0.8,0.7 c 0.1,0 0.1,0.1 0,0.2 0,0 0,0 0,0 -0.7,0.8 -1.7,1.2 -2.8,1.2 -0.6,0 -1.3,-0.2 -1.8,-0.5 -0.5,-0.3 -0.8,-0.8 -1,-1.4 -0.2,-0.5 -0.2,-1.1 -0.2,-1.6 0,-0.6 0.1,-1.1 0.2,-1.7 0.2,-0.6 0.5,-1.1 1,-1.4 0.6,-0.4 1.2,-0.6 1.8,-0.6 z m 0,1.4 c -0.6,-0.1 -1.2,0.3 -1.3,0.9 -0.1,0.2 -0.1,0.4 -0.1,0.6 0,0 0,0.1 0.1,0.1 h 2.6 c 0.1,0 0.1,0 0.1,-0.1 0,-0.2 0,-0.4 -0.1,-0.6 -0.1,-0.3 -0.3,-0.5 -0.5,-0.6 -0.2,-0.2 -0.5,-0.3 -0.8,-0.3 z"
       id="path6"
       style="fill:#ffffff" /><path
       class="st0"
       d="m 202.6,28.4 c 0.6,0 1.2,0.2 1.8,0.5 0.5,0.3 0.8,0.8 1,1.4 0.2,0.5 0.2,1.1 0.2,1.7 0,0.6 -0.1,1.1 -0.2,1.7 -0.2,0.6 -0.5,1 -1,1.4 -1.1,0.7 -2.4,0.7 -3.5,0 -0.5,-0.3 -0.8,-0.8 -1,-1.4 -0.2,-0.5 -0.2,-1.1 -0.2,-1.7 0,-0.6 0.1,-1.1 0.2,-1.7 0.2,-0.6 0.5,-1.1 1,-1.4 0.5,-0.3 1.1,-0.5 1.7,-0.5 z m 0,1.4 c -0.6,-0.1 -1.1,0.3 -1.3,0.9 -0.1,0.4 -0.2,0.8 -0.1,1.2 0,0.4 0,0.8 0.1,1.2 0.3,0.7 1,1.1 1.7,0.8 0.4,-0.1 0.7,-0.4 0.8,-0.8 0.1,-0.4 0.1,-0.8 0.1,-1.2 0,-0.4 0,-0.8 -0.1,-1.2 -0.1,-0.5 -0.6,-0.9 -1.2,-0.9 z"
       id="path8"
       style="fill:#ffffff" /><path
       class="st0"
       d="m 211,28.5 c 0.2,0 0.4,0 0.6,0.1 0.1,0 0.1,0.1 0.1,0.1 v 1.2 c 0,0.1 0,0.2 -0.2,0.1 -0.3,-0.1 -0.6,-0.1 -0.8,-0.1 -1,0 -1.5,0.6 -1.5,1.7 v 2.2 c 0,0.1 0,0.1 0.1,0.1 h 0.6 c 0.1,0 0.1,0 0.1,0.1 0,0 0,0 0,0 v 1.1 c 0,0.1 0,0.1 -0.1,0.1 0,0 0,0 0,0 h -3 c -0.1,0 -0.1,0 -0.1,-0.1 0,0 0,0 0,0 V 34 c 0,-0.1 0.1,-0.1 0.1,-0.1 0,0 0,0 0,0 h 0.6 c 0,0 0.1,0 0.1,-0.1 v -3.9 c 0,0 0,-0.1 -0.1,-0.1 0,0 0,0 0,0 H 207 c -0.1,0 -0.1,0 -0.1,-0.1 0,0 0,0 0,0 v -1.1 c 0,-0.1 0,-0.1 0.1,-0.1 0,0 0,0 0,0 h 2.1 c 0.1,0 0.1,0 0.1,0.1 0,0 0,0 0,0 v 0.7 0 c 0.4,-0.5 1.1,-0.8 1.8,-0.8 z"
       id="path10"
       style="fill:#ffffff" /><path
       class="st0"
       d="m 215.3,28.4 c 0.7,-0.1 1.4,0.2 1.8,0.8 v 0 -0.5 c 0,-0.1 0,-0.1 0.1,-0.1 0,0 0,0 0,0 h 2.1 c 0.1,0 0.1,0 0.1,0.1 0,0 0,0 0,0 v 1.1 c 0,0.1 0,0.1 -0.1,0.1 0,0 0,0 0,0 h -0.6 c -0.1,0 -0.1,0 -0.1,0.1 v 4.9 c 0.1,0.8 -0.2,1.7 -0.8,2.3 -0.6,0.6 -1.5,0.9 -2.4,0.8 -0.5,0 -0.9,-0.1 -1.4,-0.3 -0.4,-0.2 -0.8,-0.4 -1.1,-0.7 -0.1,0 -0.1,-0.1 0,-0.2 0,0 0,0 0,0 l 0.8,-0.8 c 0,-0.1 0.1,-0.1 0.2,0 0,0 0,0 0,0 0.4,0.4 0.9,0.6 1.5,0.6 1,0 1.5,-0.5 1.5,-1.6 v -0.6 0 c -0.4,0.6 -1.1,0.8 -1.8,0.8 -0.5,0 -1,-0.1 -1.4,-0.4 -0.4,-0.3 -0.7,-0.7 -0.9,-1.2 -0.2,-0.6 -0.2,-1.1 -0.2,-1.7 0,-0.6 0.1,-1.1 0.2,-1.7 0.5,-1.1 1.4,-1.8 2.5,-1.8 z m 0.4,1.4 c -0.6,0 -1.1,0.3 -1.2,0.9 -0.1,0.4 -0.2,0.7 -0.2,1.1 0,0.4 0,0.8 0.2,1.1 0.1,0.5 0.6,0.9 1.2,0.9 0.6,0 1.1,-0.3 1.2,-0.9 0.1,-0.4 0.2,-0.7 0.1,-1.1 0,-0.4 0,-0.7 -0.1,-1.1 -0.1,-0.5 -0.6,-0.9 -1.2,-0.9 z"
       id="path12"
       style="fill:#ffffff" /><path
       class="st0"
       d="m 220.7,28.6 h 2.1 c 0.1,0 0.1,0 0.1,0.1 v 5.1 c 0,0.1 0,0.1 0.1,0.1 h 0.6 c 0.1,0 0.1,0 0.1,0.1 0,0 0,0 0,0 v 1.1 c 0,0.1 0,0.1 -0.1,0.1 0,0 0,0 0,0 h -2.9 c -0.1,0 -0.1,0 -0.1,-0.1 0,0 0,0 0,0 V 34 c 0,-0.1 0,-0.1 0.1,-0.1 0,0 0,0 0,0 h 0.6 c 0.1,0 0.1,0 0.1,-0.1 V 30 c 0,0 0,-0.1 -0.1,-0.1 h -0.6 c -0.1,0 -0.1,0 -0.1,-0.1 0,0 0,0 0,0 v -1.1 c 0,-0.1 0,-0.1 0.1,-0.1 z m 0.9,-2.8 h 1.3 c 0.1,0 0.1,0 0.1,0.1 v 1.2 c 0,0.1 0,0.1 -0.1,0.1 h -1.3 c -0.1,0 -0.1,0 -0.1,-0.1 0,0 0,0 0,0 V 26 c -0.1,-0.1 -0.1,-0.1 0.1,-0.2 -0.1,0 -0.1,0 0,0 z"
       id="path14"
       style="fill:#ffffff" /><path
       class="st0"
       d="m 227.7,28.4 c 0.8,-0.1 1.5,0.1 2.2,0.6 0.5,0.5 0.7,1.1 0.6,1.8 v 3.1 c 0,0.1 0,0.1 0.1,0.1 h 0.6 c 0.1,0 0.1,0 0.1,0.1 0,0 0,0 0,0 v 1.1 c 0,0.1 0,0.1 -0.1,0.1 0,0 0,0 0,0 h -2 c -0.1,0 -0.1,0 -0.1,-0.1 0,0 0,0 0,0 v -0.5 0 c -0.5,0.6 -1.2,0.9 -1.9,0.8 -0.6,0 -1.2,-0.2 -1.6,-0.5 -0.4,-0.4 -0.7,-1 -0.6,-1.5 0,-0.6 0.2,-1.2 0.7,-1.6 0.6,-0.4 1.3,-0.6 2,-0.5 h 1.3 c 0.1,0 0.1,0 0.1,-0.1 V 31 c 0,-0.3 -0.1,-0.6 -0.3,-0.9 -0.3,-0.2 -0.7,-0.3 -1.1,-0.3 -0.2,0 -0.5,0 -0.7,0.1 0,0 -0.1,0.1 -0.1,0.1 v 0.6 c 0,0.1 0,0.1 -0.1,0.1 0,0 0,0 0,0 h -1.2 c -0.1,0 -0.1,0 -0.1,-0.1 0,0 0,0 0,0 v -1.4 c 0,-0.1 0,-0.2 0.1,-0.2 0.6,-0.4 1.4,-0.6 2.1,-0.6 z m 1.3,4 h -1.1 c -1,0 -1.4,0.3 -1.4,0.9 0,0.6 0.4,0.9 1.1,0.9 1,0 1.5,-0.4 1.5,-1.2 z"
       id="path16"
       style="fill:#ffffff" /><path
       class="st0"
       d="m 235.6,25.8 h 7.5 c 0.1,0 0.1,0 0.1,0.1 0,0 0,0 0,0 v 2.2 c 0,0.1 0,0.1 -0.1,0.1 0,0 0,0 0,0 h -1.2 c -0.1,0 -0.1,0 -0.1,-0.1 0,0 0,0 0,0 v -0.8 c 0,-0.1 0,-0.1 -0.1,-0.1 h -1.4 c -0.1,0 -0.1,0 -0.1,0.1 v 6.5 c 0,0.1 0,0.1 0.1,0.1 h 0.8 c 0.1,0 0.1,0 0.1,0.1 0,0 0,0 0,0 v 1.1 c 0,0.1 0,0.1 -0.1,0.1 0,0 0,0 0,0 h -3.3 c -0.1,0 -0.1,0 -0.1,-0.1 0,0 0,0 0,0 V 34 c 0,-0.1 0,-0.1 0.1,-0.1 0,0 0,0 0,0 h 0.7 c 0.1,0 0.1,0 0.1,-0.1 v -6.5 c 0,-0.1 0,-0.1 -0.1,-0.1 H 237 c -0.1,0 -0.1,0 -0.1,0.1 v 0.8 c 0,0.1 0,0.1 -0.1,0.1 0,0 0,0 0,0 h -1.2 c -0.1,0 -0.1,0 -0.1,-0.1 0,0 0,0 0,0 V 26 c -0.1,-0.1 -0.1,-0.1 0.1,-0.2 -0.1,0 -0.1,0 0,0 z"
       id="path18"
       style="fill:#ffffff" /><path
       class="st0"
       d="m 246.2,28.4 c 0.6,0 1.2,0.2 1.8,0.5 0.5,0.3 0.8,0.8 1,1.4 0.2,0.7 0.3,1.3 0.2,2 0,0.1 0,0.1 -0.2,0.1 h -4.1 c -0.1,0 -0.1,0 -0.1,0.1 0,0.2 0,0.4 0.1,0.5 0.2,0.6 0.8,1.1 1.5,1 0.6,0 1.2,-0.2 1.6,-0.6 0.1,-0.1 0.2,-0.1 0.2,0 l 0.8,0.7 c 0.1,0 0.1,0.1 0,0.2 0,0 0,0 0,0 -0.7,0.8 -1.7,1.2 -2.8,1.1 -0.6,0 -1.3,-0.2 -1.8,-0.5 -0.5,-0.3 -0.8,-0.8 -1,-1.4 -0.2,-0.5 -0.2,-1.1 -0.2,-1.7 0,-0.6 0.1,-1.1 0.2,-1.7 0.2,-0.6 0.5,-1 1,-1.4 0.5,-0.1 1.1,-0.3 1.8,-0.3 z m 0,1.4 c -0.6,-0.1 -1.1,0.3 -1.3,0.9 -0.1,0.2 -0.1,0.4 -0.1,0.6 0,0 0,0.1 0.1,0.1 h 2.6 c 0.1,0 0.1,0 0.1,-0.1 0,-0.2 0,-0.4 -0.1,-0.6 -0.1,-0.3 -0.3,-0.5 -0.5,-0.6 -0.2,-0.3 -0.5,-0.3 -0.8,-0.3 z"
       id="path20"
       style="fill:#ffffff" /><path
       class="st0"
       d="m 253.6,28.4 c 0.8,0 1.6,0.2 2.3,0.5 0.1,0 0.1,0.1 0.1,0.2 v 1.5 c 0,0.1 0,0.1 -0.1,0.1 h -1.2 c -0.1,0 -0.1,0 -0.1,-0.1 V 30 c 0,0 0,-0.1 -0.1,-0.1 -0.3,-0.1 -0.6,-0.2 -0.9,-0.1 -0.6,-0.1 -1.2,0.3 -1.4,0.9 -0.1,0.4 -0.2,0.8 -0.1,1.2 0,0.4 0,0.9 0.1,1.3 0.2,0.6 0.8,0.9 1.4,0.9 0.3,0 0.6,0 0.9,-0.1 0.1,0 0.1,0 0.1,-0.1 v -0.6 c 0,-0.1 0,-0.1 0.1,-0.1 h 1.2 c 0.1,0 0.1,0 0.1,0.1 v 1.5 c 0,0.1 0,0.2 -0.1,0.2 -0.7,0.4 -1.5,0.5 -2.3,0.5 -1.3,0.2 -2.5,-0.6 -2.9,-1.8 -0.2,-0.6 -0.2,-1.1 -0.2,-1.7 0,-0.6 0.1,-1.1 0.2,-1.7 0.2,-0.6 0.5,-1.1 1,-1.4 0.6,-0.3 1.3,-0.5 1.9,-0.5 z"
       id="path22"
       style="fill:#ffffff" /><path
       class="st0"
       d="m 257.5,25.8 h 2.1 c 0.1,0 0.1,0 0.1,0.1 0,0 0,0 0,0 v 3.3 0 c 0.4,-0.5 1.1,-0.8 1.8,-0.8 0.6,0 1.3,0.2 1.7,0.7 0.4,0.5 0.7,1.1 0.6,1.8 v 2.9 c 0,0.1 0,0.1 0.1,0.1 h 0.6 c 0.1,0 0.1,0 0.1,0.1 0,0 0,0 0,0 v 1.1 c 0,0.1 0,0.1 -0.1,0.1 0,0 0,0 0,0 h -2.9 c -0.1,0 -0.1,0 -0.1,-0.1 0,0 0,0 0,0 V 34 c 0,-0.1 0,-0.1 0.1,-0.1 0,0 0,0 0,0 h 0.6 c 0.1,0 0.1,0 0.1,-0.1 v -2.6 c 0,-0.4 -0.1,-0.8 -0.3,-1.1 -0.5,-0.5 -1.3,-0.5 -1.8,0 0,0 0,0 0,0 -0.2,0.3 -0.3,0.7 -0.3,1.1 v 2.6 c 0,0.1 0,0.1 0.1,0.1 h 0.6 c 0.1,0 0.1,0 0.1,0.1 0,0 0,0 0,0 v 1.1 c 0,0.1 0,0.1 -0.1,0.1 0,0 0,0 0,0 h -2.9 c -0.1,0 -0.1,0 -0.1,-0.1 0,0 0,0 0,0 V 34 c 0,-0.1 0,-0.1 0.1,-0.1 0,0 0,0 0,0 h 0.6 c 0,0 0.1,0 0.1,-0.1 v -6.6 c 0,0 0,-0.1 -0.1,-0.1 0,0 0,0 0,0 h -0.6 c -0.1,0 -0.1,0 -0.1,-0.1 0,0 0,0 0,0 v -1 c -0.2,-0.1 -0.2,-0.1 -0.1,-0.2 0,0 0,0 0,0 z"
       id="path24"
       style="fill:#ffffff" /><path
       class="st0"
       d="M 182.8,65.4 189.5,46 h 3.1 l 6.7,19.3 h -3.4 l -1.3,-4 h -7 l -1.3,4 z m 5.7,-6.9 h 5.2 l -2.6,-7.8 z"
       id="path26"
       style="fill:#ffffff" /><path
       class="st0"
       d="m 212,63.2 c -1,1.7 -2.6,2.4 -5,2.4 -4,0 -6.1,-2.6 -6.1,-6.3 v -1.9 c 0,-4.1 2,-6.3 5.7,-6.3 3.8,0 5.6,2.3 5.6,6.4 V 59 h -8.4 v 0.1 c 0,2.2 0.8,3.9 3.1,3.9 1.2,0.2 2.3,-0.4 2.9,-1.4 z m -8.2,-6.4 h 5.4 c -0.1,-2 -0.9,-3.1 -2.7,-3.1 -1.8,0 -2.5,1.2 -2.7,3.1 z"
       id="path28"
       style="fill:#ffffff" /><path
       class="st0"
       d="m 223.2,54.9 c -0.4,-0.7 -1.2,-1.1 -2,-1.1 -1.5,0 -2.6,1.1 -2.6,3.1 v 8.5 h -3 v -14 h 2.9 v 1.3 c 0.7,-1 1.9,-1.6 3.1,-1.5 1.6,-0.1 3.1,0.7 3.9,2.1 z"
       id="path30"
       style="fill:#ffffff" /><path
       class="st0"
       d="m 238.6,59.2 c 0,3.7 -1.8,6.4 -5.9,6.4 -3.9,0 -6,-2.5 -6,-6.4 v -1.8 c 0,-4.1 2.2,-6.4 6,-6.4 3.8,0 5.9,2.2 5.9,6.4 z m -3,-0.1 v -1.6 c 0,-2.4 -1,-3.8 -3,-3.8 -2,0 -3,1.4 -3,3.8 v 1.6 c 0,2.2 0.7,3.9 3,3.9 2.3,0 3,-1.7 3,-3.9 z"
       id="path32"
       style="fill:#ffffff" /><path
       class="st0"
       d="m 249.4,55 c -0.7,-0.9 -1.4,-1.3 -3,-1.3 -1.3,0 -2.2,0.4 -2.2,1.4 0,1.2 1,1.5 2.7,1.7 3.1,0.4 5.1,1.5 5.1,4.4 0,2.6 -1.8,4.3 -5.4,4.3 -2.9,0 -4.5,-0.8 -5.6,-2.3 l 2.3,-1.6 c 0.6,0.9 1.5,1.3 3.3,1.3 1.5,0 2.4,-0.6 2.4,-1.5 0,-1.2 -0.7,-1.5 -2.9,-1.8 -2.7,-0.3 -4.9,-1.5 -4.9,-4.4 0,-2.5 1.8,-4.2 5.2,-4.2 2.3,0 4.1,0.6 5.2,2.3 z"
       id="path34"
       style="fill:#ffffff" /><path
       class="st0"
       d="m 267.1,59.3 c 0,3.6 -1.8,6.3 -5.5,6.3 -1.2,0.1 -2.5,-0.3 -3.4,-1.2 v 6.2 h -3 V 51.4 h 3 v 1.1 c 0.9,-1 2.1,-1.5 3.4,-1.4 3.4,0 5.5,2.3 5.5,6.3 z m -3,-0.2 v -1.6 c 0,-2.4 -1,-3.8 -3,-3.8 -2,0 -2.9,1.3 -3,3.6 v 1.8 c 0,2.2 0.7,3.9 3,3.9 2.2,0 3,-1.7 3,-3.9 z"
       id="path36"
       style="fill:#ffffff" /><path
       class="st0"
       d="m 274.7,57.1 h 3 v -1.2 c 0,-1.8 -0.7,-2.2 -2.8,-2.2 -1.5,0 -2.3,0.2 -2.9,1.3 l -2.2,-1.5 c 1,-1.7 2.5,-2.3 5.3,-2.3 3.6,0 5.5,1.1 5.5,4.8 v 9.4 h -2.9 v -1.3 c -0.7,1.1 -1.5,1.5 -3.2,1.5 -3.1,0 -5,-1.6 -5,-4.4 0,-3 2.2,-4.1 5.2,-4.1 z m 3,2.3 H 275 c -1.8,0 -2.5,0.6 -2.5,1.8 0,1.2 1,1.8 2.4,1.8 1.8,0 2.9,-0.6 2.9,-3 z"
       id="path38"
       style="fill:#ffffff" /><path
       class="st0"
       d="m 295,63.2 c -0.9,1.6 -2.6,2.4 -5,2.4 -3.9,0 -6.2,-2.5 -6.2,-6.3 v -1.9 c 0,-4 2.3,-6.3 6.3,-6.3 1.9,-0.1 3.8,0.7 4.9,2.3 l -2.3,1.6 c -0.6,-0.9 -1.6,-1.3 -2.7,-1.3 -2.2,0 -3.2,1.4 -3.2,3.8 v 1.6 c 0,2.2 0.8,3.9 3.2,3.9 1.1,0.1 2.1,-0.4 2.7,-1.4 z"
       id="path40"
       style="fill:#ffffff" /><path
       class="st0"
       d="m 307.8,63.2 c -1,1.7 -2.5,2.4 -5,2.4 -4,0 -6.1,-2.6 -6.1,-6.3 v -1.9 c 0,-4.1 2,-6.3 5.7,-6.3 3.8,0 5.7,2.3 5.7,6.4 V 59 h -8.4 v 0.1 c 0,2.2 0.8,3.9 3,3.9 1.1,0.2 2.3,-0.4 2.9,-1.4 z m -8.1,-6.4 h 5.3 c -0.1,-2 -1,-3.1 -2.7,-3.1 -1.7,0 -2.5,1.2 -2.6,3.1 z"
       id="path42"
       style="fill:#ffffff" /><path
       class="st0"
       d="m 329.5,50.7 c -0.9,-1.4 -2.5,-2.2 -4.2,-2.1 -2,0 -3.2,0.9 -3.2,2.5 0,1.8 1.5,2.6 4.1,3.2 3.9,0.8 5.9,2.3 5.9,5.8 0,2.9 -1.9,5.5 -6.6,5.5 -3.3,0 -5.6,-1 -7.2,-3.2 l 2.5,-1.8 c 1,1.4 2.7,2.2 4.5,2.1 2.7,0 3.5,-1.2 3.5,-2.6 0,-1.4 -0.9,-2.5 -4.2,-3.2 -3.7,-0.8 -5.8,-2.6 -5.8,-5.8 0,-2.9 1.9,-5.4 6.4,-5.4 3.1,0 5.2,1 6.6,3.2 z"
       id="path44"
       style="fill:#ffffff" /><path
       class="st0"
       d="m 336.5,51.4 3.6,9.8 3.2,-9.8 h 3.1 L 341.5,66 c -1.2,3.6 -2.2,4.8 -6.2,4.8 V 68 c 2,0 2.8,-0.3 3.5,-2.4 l -5.4,-14.2 z"
       id="path46"
       style="fill:#ffffff" /><path
       class="st0"
       d="m 356.3,55 c -0.7,-0.9 -1.4,-1.3 -3,-1.3 -1.3,0 -2.2,0.4 -2.2,1.4 0,1.2 1,1.5 2.7,1.7 3.1,0.4 5.1,1.5 5.1,4.4 0,2.6 -1.8,4.3 -5.4,4.3 -2.9,0 -4.5,-0.8 -5.6,-2.3 l 2.3,-1.6 c 0.6,0.9 1.5,1.3 3.3,1.3 1.5,0 2.4,-0.6 2.4,-1.5 0,-1.2 -0.7,-1.5 -2.9,-1.8 -2.7,-0.3 -4.9,-1.5 -4.9,-4.4 0,-2.5 1.8,-4.2 5.2,-4.2 2.3,0 4.1,0.6 5.2,2.3 z"
       id="path48"
       style="fill:#ffffff" /><path
       class="st0"
       d="m 361,51.4 h 1.8 v -3.1 h 3 v 3.1 h 3 V 54 h -3 v 6.4 c 0,1.6 0.2,2.3 1.8,2.3 h 1.1 v 2.7 h -1.5 c -3.4,0 -4.6,-1.2 -4.6,-4.5 v -7 H 361 Z"
       id="path50"
       style="fill:#ffffff" /><path
       class="st0"
       d="m 382.2,63.2 c -1,1.7 -2.5,2.4 -5,2.4 -4,0 -6.1,-2.6 -6.1,-6.3 v -1.9 c 0,-4.1 2,-6.3 5.7,-6.3 3.8,0 5.7,2.3 5.7,6.4 V 59 H 374 v 0.1 c 0,2.2 0.8,3.9 3.1,3.9 1.2,0.2 2.3,-0.4 2.9,-1.4 z M 374,56.8 h 5.4 c -0.1,-2 -1,-3.1 -2.7,-3.1 -1.7,0 -2.5,1.2 -2.7,3.1 z"
       id="path52"
       style="fill:#ffffff" /><path
       class="st0"
       d="m 385.8,51.4 h 2.9 v 1.3 c 0.8,-1 2,-1.6 3.3,-1.5 1.6,-0.1 3.1,0.7 4,2 1,-1.3 2.5,-2 4.1,-2 3,0 4.9,1.8 4.9,5.5 v 8.8 h -3 v -8.4 c 0,-2.3 -1,-3.2 -2.5,-3.2 -1.5,0 -2.5,1.1 -2.6,3 v 8.6 h -3 v -8.4 c 0,-2.4 -1,-3.2 -2.5,-3.2 -1.5,0 -2.6,1.2 -2.6,3.1 v 8.5 h -3 z"
       id="path54"
       style="fill:#ffffff" /><path
       class="st0"
       d="m 416.4,55 c -0.7,-0.9 -1.4,-1.3 -3.1,-1.3 -1.2,0 -2.2,0.4 -2.2,1.4 0,1.2 1,1.5 2.7,1.7 3.1,0.4 5.1,1.5 5.1,4.4 0,2.6 -1.8,4.3 -5.4,4.3 -2.9,0 -4.5,-0.8 -5.6,-2.3 l 2.3,-1.6 c 0.6,0.9 1.5,1.3 3.3,1.3 1.5,0 2.4,-0.6 2.4,-1.5 0,-1.2 -0.7,-1.5 -2.9,-1.8 -2.7,-0.3 -4.9,-1.5 -4.9,-4.4 0,-2.5 1.8,-4.2 5.2,-4.2 2.3,0 4.1,0.6 5.2,2.3 z"
       id="path56"
       style="fill:#ffffff" /><path
       class="st0"
       d="M 184.9,95.4 V 76 h 6.5 c 4.3,0 7.2,2.3 7.2,8.5 v 2.3 c 0,6.2 -2.9,8.5 -7.2,8.5 z m 10.5,-8.6 v -2.3 c 0,-4 -1.2,-5.7 -4,-5.7 h -3.3 v 13.7 h 3.3 c 2.8,0.1 4,-1.7 4,-5.7 z"
       id="path58"
       style="fill:#ffffff" /><path
       class="st0"
       d="m 212.7,93.2 c -1,1.7 -2.6,2.4 -5,2.4 -4,0 -6.1,-2.6 -6.1,-6.3 v -1.9 c 0,-4.1 2,-6.3 5.7,-6.3 3.8,0 5.6,2.3 5.6,6.4 V 89 h -8.4 v 0.1 c 0,2.2 0.8,3.9 3.1,3.9 1.2,0.2 2.3,-0.4 2.9,-1.4 z m -8.2,-6.4 h 5.4 c -0.1,-2.1 -0.9,-3.1 -2.7,-3.1 -1.8,0 -2.5,1.2 -2.7,3.1 z"
       id="path60"
       style="fill:#ffffff" /><path
       class="st0"
       d="m 224,85 c -0.7,-0.9 -1.4,-1.3 -3.1,-1.3 -1.3,0 -2.2,0.4 -2.2,1.4 0,1.2 1,1.5 2.7,1.7 3.1,0.4 5.1,1.4 5.1,4.4 0,2.6 -1.8,4.3 -5.4,4.3 -2.9,0 -4.5,-0.8 -5.6,-2.3 l 2.3,-1.6 c 0.6,0.9 1.5,1.3 3.3,1.3 1.5,0 2.4,-0.6 2.4,-1.5 0,-1.2 -0.7,-1.5 -2.9,-1.8 -2.7,-0.3 -4.9,-1.4 -4.9,-4.4 0,-2.5 1.8,-4.2 5.2,-4.2 2.3,0 4.1,0.6 5.2,2.3 z"
       id="path62"
       style="fill:#ffffff" /><path
       class="st0"
       d="m 230.1,76 h 3.3 v 3 h -3.3 z m 0.1,5.3 h 3 v 14 h -3 z"
       id="path64"
       style="fill:#ffffff" /><path
       class="st0"
       d="m 245.7,81.4 h 3 v 13.7 c 0,4.3 -2.5,5.8 -6.1,5.8 -2.5,0 -4.1,-0.6 -5.2,-2.4 l 2.1,-1.5 c 0.7,1 1.8,1.5 3,1.4 2.2,0 3.2,-1 3.2,-3.2 v -0.7 c -0.9,0.8 -2.1,1.3 -3.4,1.2 -3.7,0 -5.6,-2.7 -5.6,-6.3 v -1.9 c 0,-4 2.2,-6.3 5.6,-6.3 1.2,-0.1 2.5,0.4 3.4,1.2 z m 0,7.7 v -1.6 c 0,-2.4 -1,-3.8 -3,-3.8 -2,0 -3,1.4 -3,3.8 v 1.6 c 0,2.2 0.8,3.9 3,3.9 2.2,0 3,-1.7 3,-3.9 z"
       id="path66"
       style="fill:#ffffff" /><path
       class="st0"
       d="m 252.4,81.4 h 2.9 v 1.3 c 0.8,-1.1 2.1,-1.6 3.5,-1.5 2.9,0 5.1,1.5 5.1,5.5 v 8.8 h -3 v -8.4 c 0,-2.5 -1.1,-3.2 -2.7,-3.2 -1.8,0 -2.9,1.3 -2.9,3.1 v 8.5 h -3 z"
       id="path68"
       style="fill:#ffffff" /><path
       class="st0"
       d="m 278.9,92.6 h 8.6 v 2.8 H 275.6 V 76 h 3.2 v 16.6 z"
       id="path70"
       style="fill:#ffffff" /><path
       class="st0"
       d="m 294.2,87.1 h 3 v -1.2 c 0,-1.8 -0.7,-2.2 -2.8,-2.2 -1.5,0 -2.3,0.2 -2.9,1.3 l -2.2,-1.5 c 1,-1.7 2.5,-2.3 5.3,-2.3 3.6,0 5.5,1.1 5.5,4.8 v 9.4 h -2.9 v -1.3 c -0.7,1.1 -1.5,1.5 -3.2,1.5 -3.1,0 -5,-1.6 -5,-4.4 0,-3 2.2,-4.1 5.2,-4.1 z m 3,2.3 h -2.8 c -1.8,0 -2.5,0.6 -2.5,1.8 0,1.2 1,1.8 2.4,1.8 1.8,0 2.9,-0.6 2.9,-3 z"
       id="path72"
       style="fill:#ffffff" /><path
       class="st0"
       d="m 306.7,82.4 c 0.8,-1 2.1,-1.5 3.4,-1.3 3.4,0 5.6,2.2 5.6,6.4 v 1.8 c 0,3.7 -1.8,6.4 -5.6,6.4 -1.3,0.1 -2.5,-0.3 -3.4,-1.3 v 1 h -2.9 V 76 h 2.9 z m 6,6.7 v -1.6 c 0,-2.4 -1,-3.8 -3,-3.8 -2,0 -2.9,1.3 -3,3.6 v 1.8 c 0,2.2 0.8,3.9 3,3.9 2.2,0 3,-1.7 3,-3.9 z"
       id="path74"
       style="fill:#ffffff" /><path
       class="st0"
       d="m 330.1,89.2 c 0,3.7 -1.8,6.4 -5.9,6.4 -3.9,0 -6,-2.5 -6,-6.4 v -1.8 c 0,-4.1 2.2,-6.4 6,-6.4 3.8,0 5.9,2.2 5.9,6.4 z m -3,-0.1 v -1.6 c 0,-2.4 -1,-3.8 -3,-3.8 -2,0 -3,1.4 -3,3.8 v 1.6 c 0,2.2 0.7,3.9 3,3.9 2.2,0 3,-1.7 3,-3.9 z"
       id="path76"
       style="fill:#ffffff" /><path
       class="st0"
       d="m 340.8,84.9 c -0.4,-0.7 -1.2,-1.1 -2,-1.1 -1.5,0 -2.6,1.1 -2.6,3.1 v 8.5 h -3 v -14 h 2.9 v 1.3 c 0.7,-1 1.9,-1.6 3.1,-1.5 1.6,-0.1 3.1,0.7 3.9,2.1 z"
       id="path78"
       style="fill:#ffffff" /><path
       class="st0"
       d="m 349.2,87.1 h 3 v -1.2 c 0,-1.8 -0.7,-2.2 -2.8,-2.2 -1.5,0 -2.3,0.2 -2.9,1.3 l -2.2,-1.5 c 1,-1.7 2.5,-2.3 5.3,-2.3 3.6,0 5.5,1.1 5.5,4.8 v 9.4 h -2.9 v -1.3 c -0.7,1.1 -1.5,1.5 -3.2,1.5 -3.1,0 -5,-1.6 -5,-4.4 0,-3 2.2,-4.1 5.2,-4.1 z m 3,2.3 h -2.8 c -1.8,0 -2.5,0.6 -2.5,1.8 0,1.2 1,1.8 2.4,1.8 1.8,0 2.9,-0.6 2.9,-3 z"
       id="path80"
       style="fill:#ffffff" /><path
       class="st0"
       d="m 357.8,81.4 h 1.8 v -3.1 h 3 v 3.1 h 3 V 84 h -3 v 6.4 c 0,1.6 0.2,2.3 1.8,2.3 h 1.1 v 2.7 h -1.4 c -3.4,0 -4.6,-1.2 -4.6,-4.5 v -7 h -1.8 z"
       id="path82"
       style="fill:#ffffff" /><path
       class="st0"
       d="m 379.8,89.2 c 0,3.7 -1.8,6.4 -5.9,6.4 -3.9,0 -6,-2.5 -6,-6.4 v -1.8 c 0,-4.1 2.2,-6.4 6,-6.4 3.8,0 5.9,2.2 5.9,6.4 z m -3,-0.1 v -1.6 c 0,-2.4 -1,-3.8 -3,-3.8 -2,0 -3,1.4 -3,3.8 v 1.6 c 0,2.2 0.7,3.9 3,3.9 2.2,0 3,-1.7 3,-3.9 z"
       id="path84"
       style="fill:#ffffff" /><path
       class="st0"
       d="m 390.5,84.9 c -0.4,-0.7 -1.2,-1.1 -2,-1.1 -1.5,0 -2.6,1.1 -2.6,3.1 v 8.5 h -3 v -14 h 2.9 v 1.3 c 0.7,-1 1.9,-1.6 3.1,-1.5 1.6,-0.1 3.1,0.7 3.9,2.1 z"
       id="path86"
       style="fill:#ffffff" /><path
       class="st0"
       d="m 396.4,81.4 3.6,9.8 3.2,-9.8 h 3.1 L 401.4,96 c -1.2,3.6 -2.2,4.8 -6.2,4.8 V 98 c 2,0 2.8,-0.3 3.5,-2.4 l -5.4,-14.2 z"
       id="path88"
       style="fill:#ffffff" /></g><g
     id="g650"><rect
       x="163.61543"
       y="19.629601"
       transform="rotate(-0.07999975)"
       class="st1"
       width="1.5000014"
       height="82.200081"
       id="rect90" /><g
       id="g642"><path
         class="st1"
         d="m 128.9,96.9 v 0 c -1.3,0 -2.4,1 -2.4,2.3 0,1.3 1,2.4 2.3,2.4 1.3,0 2.4,-1 2.4,-2.3 0,0 0,0 0,0 0.1,-1.3 -1,-2.4 -2.3,-2.4 0,0 0,0 0,0 z m 0,4.4 c -1.1,0 -2,-0.9 -2,-2 0,-1.1 0.9,-2 2,-2 v 0 c 1.1,0 2,0.9 2,2 0,1.1 -0.9,2 -2,2 z"
         id="path92" /><path
         class="st1"
         d="m 129.4,99.4 v 0 c 0.3,-0.1 0.5,-0.3 0.5,-0.6 0,-0.2 -0.1,-0.4 -0.2,-0.6 -0.2,-0.2 -0.5,-0.2 -0.8,-0.2 -0.3,0 -0.5,0 -0.8,0.1 v 2.7 h 0.4 v -1.2 h 0.3 c 0.3,0 0.5,0.1 0.6,0.4 0,0 0,0 0,0.1 0,0.2 0.1,0.5 0.2,0.7 h 0.5 c -0.1,-0.2 -0.1,-0.4 -0.2,-0.7 -0.2,-0.5 -0.3,-0.7 -0.5,-0.7 z m -0.6,-0.2 h -0.3 v -0.9 h 0.3 c 0.5,0 0.6,0.2 0.6,0.5 0,0.3 -0.3,0.4 -0.6,0.4 z"
         id="path94" /><path
         class="st1"
         d="M 54,19.6 Z"
         id="path96" /><path
         class="st1"
         d="M 64.9,45.5 V 66.2 H 76 L 77.2,60 h 5 C 80.3,69.5 70.9,76 59,76 58.2,76 57.3,76 56.5,75.9 50.3,75.5 44.4,73.5 39.4,69.9 34.5,66.2 32,61.3 32,55.6 c 0,-6.1 2.7,-11.9 7.3,-15.9 4.7,-4 10.6,-6.4 16.8,-6.6 h 1.2 c 7.8,0.1 15.4,2.9 21.4,7.8 l 0.4,0.3 0.4,0.3 0.2,0.2 H 92.4 V 19.6 H 79.5 V 26 C 71.8,21.4 63,19 54,19 H 53.8 C 42,19.1 30.6,23.8 22.2,32.2 15.5,39.1 11.9,47.4 12,55.8 c 0.1,9 4.4,17.3 12.2,23.5 7.9,6.1 17.5,9.4 27.5,9.3 1.2,0 2.5,-0.1 3.7,-0.2 10,-0.8 18.8,-3.1 25.1,-6.4 v 2.8 H 94.2 V 60 h 4.7 v 28.7 h -7.1 v 12.9 h 31.9 V 88.7 h -7.1 V 60 h 16.1 l 1.1,6.2 h 11.1 V 45.5 Z M 54,19.6 Z"
         id="path98" /></g></g></g>
</svg>
